<svg width="266.939" height="45.123" viewBox="-2.629 -2 266.939 45.123" xmlns="http://www.w3.org/2000/svg">
  <g id="svgGroup" stroke-linecap="round" fill-rule="nonzero" fill="#000000" stroke="#000000" stroke-width="0.5">
      <path d="M2.244 18.156L-0.629 18.156L4.981 2.142L7.854 2.142L2.244 18.156ZM9.299 18.156L6.426 18.156L12.036 2.142L14.909 2.142L9.299 18.156ZM23.613 16.456L20.247 16.456L20.247 4.556L23.613 4.556L23.613 16.456ZM39.440 16.456L36.431 16.456L36.431 14.739L36.210 14.314L36.210 11.152Q36.210 10.387 35.743 9.970Q35.275 9.554 34.255 9.554L34.255 9.554Q33.592 9.554 32.912 9.766Q32.232 9.979 31.756 10.353L31.756 10.353L30.668 8.160Q31.450 7.650 32.547 7.369Q33.643 7.089 34.731 7.089L34.731 7.089Q36.975 7.089 38.208 8.117Q39.440 9.146 39.440 11.339L39.440 11.339L39.440 16.456ZM33.711 16.609L33.711 16.609Q32.606 16.609 31.841 16.235Q31.076 15.861 30.677 15.215Q30.277 14.569 30.277 13.770L30.277 13.770Q30.277 12.920 30.711 12.299Q31.144 11.679 32.045 11.348Q32.946 11.016 34.374 11.016L34.374 11.016L36.550 11.016L36.550 12.699L34.816 12.699Q34.034 12.699 33.720 12.954Q33.405 13.209 33.405 13.634L33.405 13.634Q33.405 14.059 33.728 14.314Q34.051 14.569 34.612 14.569L34.612 14.569Q35.139 14.569 35.573 14.305Q36.006 14.042 36.210 13.498L36.210 13.498L36.652 14.688Q36.397 15.640 35.658 16.125Q34.918 16.609 33.711 16.609ZM44.710 16.456L41.480 16.456L41.480 7.242L44.557 7.242L44.557 9.809L43.945 9.078Q44.455 8.092 45.339 7.590Q46.223 7.089 47.311 7.089L47.311 7.089Q48.552 7.089 49.496 7.726Q50.439 8.364 50.762 9.707L50.762 9.707L49.708 9.486Q50.201 8.364 51.196 7.726Q52.190 7.089 53.482 7.089L53.482 7.089Q54.553 7.089 55.395 7.522Q56.236 7.956 56.721 8.857Q57.205 9.758 57.205 11.186L57.205 11.186L57.205 16.456L53.975 16.456L53.975 11.713Q53.975 10.727 53.601 10.276Q53.227 9.826 52.581 9.826L52.581 9.826Q52.122 9.826 51.748 10.047Q51.374 10.268 51.170 10.718Q50.966 11.169 50.966 11.883L50.966 11.883L50.966 16.456L47.736 16.456L47.736 11.713Q47.736 10.727 47.371 10.276Q47.005 9.826 46.342 9.826L46.342 9.826Q45.866 9.826 45.501 10.047Q45.135 10.268 44.923 10.718Q44.710 11.169 44.710 11.883L44.710 11.883L44.710 16.456ZM72.828 16.456L69.819 16.456L69.819 14.739L69.598 14.314L69.598 11.152Q69.598 10.387 69.131 9.970Q68.663 9.554 67.643 9.554L67.643 9.554Q66.980 9.554 66.300 9.766Q65.620 9.979 65.144 10.353L65.144 10.353L64.056 8.160Q64.838 7.650 65.935 7.369Q67.031 7.089 68.119 7.089L68.119 7.089Q70.363 7.089 71.596 8.117Q72.828 9.146 72.828 11.339L72.828 11.339L72.828 16.456ZM67.099 16.609L67.099 16.609Q65.994 16.609 65.229 16.235Q64.464 15.861 64.065 15.215Q63.665 14.569 63.665 13.770L63.665 13.770Q63.665 12.920 64.099 12.299Q64.532 11.679 65.433 11.348Q66.334 11.016 67.762 11.016L67.762 11.016L69.938 11.016L69.938 12.699L68.204 12.699Q67.422 12.699 67.108 12.954Q66.793 13.209 66.793 13.634L66.793 13.634Q66.793 14.059 67.116 14.314Q67.439 14.569 68.000 14.569L68.000 14.569Q68.527 14.569 68.961 14.305Q69.394 14.042 69.598 13.498L69.598 13.498L70.040 14.688Q69.785 15.640 69.046 16.125Q68.306 16.609 67.099 16.609ZM84.150 16.694L84.150 16.694Q82.688 16.694 81.337 16.328Q79.985 15.963 79.135 15.385L79.135 15.385L80.240 12.903Q81.039 13.413 82.085 13.744Q83.130 14.076 84.167 14.076L84.167 14.076Q84.864 14.076 85.289 13.948Q85.714 13.821 85.910 13.608Q86.105 13.396 86.105 13.107L86.105 13.107Q86.105 12.699 85.731 12.461Q85.357 12.223 84.762 12.070Q84.167 11.917 83.445 11.764Q82.722 11.611 82.000 11.373Q81.277 11.135 80.682 10.752Q80.087 10.370 79.713 9.749Q79.339 9.129 79.339 8.177L79.339 8.177Q79.339 7.106 79.925 6.239Q80.512 5.372 81.685 4.845Q82.858 4.318 84.609 4.318L84.609 4.318Q85.782 4.318 86.913 4.581Q88.043 4.845 88.927 5.355L88.927 5.355L87.890 7.854Q87.040 7.395 86.207 7.165Q85.374 6.936 84.592 6.936L84.592 6.936Q83.895 6.936 83.470 7.080Q83.045 7.225 82.858 7.463Q82.671 7.701 82.671 8.007L82.671 8.007Q82.671 8.398 83.037 8.627Q83.402 8.857 84.006 9.002Q84.609 9.146 85.332 9.299Q86.054 9.452 86.777 9.681Q87.499 9.911 88.094 10.293Q88.689 10.676 89.055 11.296Q89.420 11.917 89.420 12.852L89.420 12.852Q89.420 13.889 88.834 14.764Q88.247 15.640 87.083 16.167Q85.918 16.694 84.150 16.694ZM95.438 16.609L95.438 16.609Q93.925 16.609 92.752 15.997Q91.579 15.385 90.907 14.305Q90.236 13.226 90.236 11.832L90.236 11.832Q90.236 10.438 90.907 9.367Q91.579 8.296 92.752 7.692Q93.925 7.089 95.438 7.089L95.438 7.089Q96.951 7.089 98.133 7.692Q99.314 8.296 99.977 9.367Q100.640 10.438 100.640 11.832L100.640 11.832Q100.640 13.226 99.977 14.305Q99.314 15.385 98.133 15.997Q96.951 16.609 95.438 16.609ZM95.438 14.042L95.438 14.042Q95.999 14.042 96.433 13.787Q96.866 13.532 97.121 13.030Q97.376 12.529 97.376 11.832L97.376 11.832Q97.376 11.135 97.121 10.650Q96.866 10.166 96.433 9.911Q95.999 9.656 95.438 9.656L95.438 9.656Q94.894 9.656 94.460 9.911Q94.027 10.166 93.764 10.650Q93.500 11.135 93.500 11.832L93.500 11.832Q93.500 12.529 93.764 13.030Q94.027 13.532 94.460 13.787Q94.894 14.042 95.438 14.042ZM105.740 16.456L102.510 16.456L102.510 7.344Q102.510 5.678 103.505 4.683Q104.499 3.689 106.352 3.689L106.352 3.689Q106.947 3.689 107.525 3.808Q108.103 3.927 108.494 4.165L108.494 4.165L107.695 6.443Q107.491 6.324 107.236 6.247Q106.981 6.171 106.726 6.171L106.726 6.171Q106.216 6.171 105.936 6.468Q105.655 6.766 105.655 7.378L105.655 7.378L105.655 8.041L105.740 9.384L105.740 16.456ZM107.848 9.996L101.167 9.996L101.167 7.582L107.848 7.582L107.848 9.996ZM113.152 16.609L113.152 16.609Q111.384 16.609 110.398 15.733Q109.412 14.858 109.412 13.090L109.412 13.090L109.412 5.185L112.642 5.185L112.642 13.056Q112.642 13.549 112.914 13.829Q113.186 14.110 113.611 14.110L113.611 14.110Q114.189 14.110 114.597 13.821L114.597 13.821L115.396 16.082Q114.988 16.354 114.393 16.482Q113.798 16.609 113.152 16.609ZM114.750 9.639L108.069 9.639L108.069 7.242L114.750 7.242L114.750 9.639ZM121.958 16.456L118.830 16.456L115.549 7.242L118.609 7.242L121.210 14.943L119.748 14.943L122.451 7.242L125.205 7.242L127.806 14.943L126.378 14.943L129.064 7.242L131.903 7.242L128.622 16.456L125.494 16.456L123.284 10.081L124.236 10.081L121.958 16.456ZM141.525 16.456L138.516 16.456L138.516 14.739L138.295 14.314L138.295 11.152Q138.295 10.387 137.828 9.970Q137.360 9.554 136.340 9.554L136.340 9.554Q135.677 9.554 134.997 9.766Q134.317 9.979 133.841 10.353L133.841 10.353L132.753 8.160Q133.535 7.650 134.632 7.369Q135.728 7.089 136.816 7.089L136.816 7.089Q139.060 7.089 140.293 8.117Q141.525 9.146 141.525 11.339L141.525 11.339L141.525 16.456ZM135.796 16.609L135.796 16.609Q134.691 16.609 133.926 16.235Q133.161 15.861 132.762 15.215Q132.362 14.569 132.362 13.770L132.362 13.770Q132.362 12.920 132.796 12.299Q133.229 11.679 134.130 11.348Q135.031 11.016 136.459 11.016L136.459 11.016L138.635 11.016L138.635 12.699L136.901 12.699Q136.119 12.699 135.804 12.954Q135.490 13.209 135.490 13.634L135.490 13.634Q135.490 14.059 135.813 14.314Q136.136 14.569 136.697 14.569L136.697 14.569Q137.224 14.569 137.657 14.305Q138.091 14.042 138.295 13.498L138.295 13.498L138.737 14.688Q138.482 15.640 137.743 16.125Q137.003 16.609 135.796 16.609ZM146.795 16.456L143.565 16.456L143.565 7.242L146.642 7.242L146.642 9.928L146.183 9.163Q146.591 8.126 147.509 7.607Q148.427 7.089 149.736 7.089L149.736 7.089L149.736 9.996Q149.515 9.962 149.353 9.953Q149.192 9.945 149.005 9.945L149.005 9.945Q148.019 9.945 147.407 10.480Q146.795 11.016 146.795 12.223L146.795 12.223L146.795 16.456ZM155.924 16.609L155.924 16.609Q154.292 16.609 153.077 15.989Q151.861 15.368 151.190 14.288Q150.518 13.209 150.518 11.832L150.518 11.832Q150.518 10.455 151.172 9.375Q151.827 8.296 152.983 7.692Q154.139 7.089 155.584 7.089L155.584 7.089Q156.944 7.089 158.066 7.641Q159.188 8.194 159.851 9.265Q160.514 10.336 160.514 11.866L160.514 11.866Q160.514 12.036 160.497 12.257Q160.480 12.478 160.463 12.665L160.463 12.665L153.170 12.665L153.170 10.965L158.746 10.965L157.522 11.441Q157.539 10.812 157.292 10.353Q157.046 9.894 156.613 9.639Q156.179 9.384 155.601 9.384L155.601 9.384Q155.023 9.384 154.589 9.639Q154.156 9.894 153.918 10.361Q153.680 10.829 153.680 11.458L153.680 11.458L153.680 11.951Q153.680 12.631 153.960 13.124Q154.241 13.617 154.768 13.880Q155.295 14.144 156.026 14.144L156.026 14.144Q156.706 14.144 157.190 13.948Q157.675 13.753 158.151 13.345L158.151 13.345L159.851 15.113Q159.188 15.844 158.219 16.226Q157.250 16.609 155.924 16.609ZM176.664 16.456L167.110 16.456L167.110 4.556L176.443 4.556L176.443 7.157L170.442 7.157L170.442 13.855L176.664 13.855L176.664 16.456ZM175.729 11.679L170.204 11.679L170.204 9.163L175.729 9.163L175.729 11.679ZM181.611 16.456L178.381 16.456L178.381 7.242L181.458 7.242L181.458 9.860L180.863 9.095Q181.390 8.092 182.308 7.590Q183.226 7.089 184.382 7.089L184.382 7.089Q185.453 7.089 186.320 7.522Q187.187 7.956 187.689 8.857Q188.190 9.758 188.190 11.186L188.190 11.186L188.190 16.456L184.960 16.456L184.960 11.713Q184.960 10.727 184.561 10.276Q184.161 9.826 183.447 9.826L183.447 9.826Q182.937 9.826 182.512 10.055Q182.087 10.285 181.849 10.761Q181.611 11.237 181.611 12.002L181.611 12.002L181.611 16.456ZM194.718 19.907L194.718 19.907Q193.392 19.907 192.194 19.601Q190.995 19.295 190.145 18.700L190.145 18.700L191.318 16.439Q191.896 16.898 192.755 17.162Q193.613 17.425 194.429 17.425L194.429 17.425Q195.738 17.425 196.316 16.855Q196.894 16.286 196.894 15.198L196.894 15.198L196.894 14.110L197.064 11.526L197.047 8.925L197.047 7.242L200.124 7.242L200.124 14.773Q200.124 17.391 198.713 18.649Q197.302 19.907 194.718 19.907ZM194.157 15.980L194.157 15.980Q192.933 15.980 191.905 15.428Q190.876 14.875 190.256 13.880Q189.635 12.886 189.635 11.526L189.635 11.526Q189.635 10.166 190.256 9.171Q190.876 8.177 191.905 7.633Q192.933 7.089 194.157 7.089L194.157 7.089Q195.330 7.089 196.163 7.556Q196.996 8.024 197.430 9.010Q197.863 9.996 197.863 11.526L197.863 11.526Q197.863 13.056 197.430 14.042Q196.996 15.028 196.163 15.504Q195.330 15.980 194.157 15.980ZM194.922 13.413L194.922 13.413Q195.500 13.413 195.951 13.175Q196.401 12.937 196.665 12.512Q196.928 12.087 196.928 11.526L196.928 11.526Q196.928 10.965 196.665 10.540Q196.401 10.115 195.951 9.885Q195.500 9.656 194.922 9.656L194.922 9.656Q194.344 9.656 193.885 9.885Q193.426 10.115 193.163 10.540Q192.899 10.965 192.899 11.526L192.899 11.526Q192.899 12.087 193.163 12.512Q193.426 12.937 193.885 13.175Q194.344 13.413 194.922 13.413ZM205.428 16.456L202.198 16.456L202.198 7.242L205.428 7.242L205.428 16.456ZM203.813 6.222L203.813 6.222Q202.929 6.222 202.385 5.729Q201.841 5.236 201.841 4.505L201.841 4.505Q201.841 3.774 202.385 3.281Q202.929 2.788 203.813 2.788L203.813 2.788Q204.697 2.788 205.241 3.255Q205.785 3.723 205.785 4.454L205.785 4.454Q205.785 5.219 205.250 5.720Q204.714 6.222 203.813 6.222ZM210.749 16.456L207.519 16.456L207.519 7.242L210.596 7.242L210.596 9.860L210.001 9.095Q210.528 8.092 211.446 7.590Q212.364 7.089 213.520 7.089L213.520 7.089Q214.591 7.089 215.458 7.522Q216.325 7.956 216.827 8.857Q217.328 9.758 217.328 11.186L217.328 11.186L217.328 16.456L214.098 16.456L214.098 11.713Q214.098 10.727 213.699 10.276Q213.299 9.826 212.585 9.826L212.585 9.826Q212.075 9.826 211.650 10.055Q211.225 10.285 210.987 10.761Q210.749 11.237 210.749 12.002L210.749 12.002L210.749 16.456ZM224.179 16.609L224.179 16.609Q222.547 16.609 221.332 15.989Q220.116 15.368 219.445 14.288Q218.773 13.209 218.773 11.832L218.773 11.832Q218.773 10.455 219.428 9.375Q220.082 8.296 221.238 7.692Q222.394 7.089 223.839 7.089L223.839 7.089Q225.199 7.089 226.321 7.641Q227.443 8.194 228.106 9.265Q228.769 10.336 228.769 11.866L228.769 11.866Q228.769 12.036 228.752 12.257Q228.735 12.478 228.718 12.665L228.718 12.665L221.425 12.665L221.425 10.965L227.001 10.965L225.777 11.441Q225.794 10.812 225.548 10.353Q225.301 9.894 224.868 9.639Q224.434 9.384 223.856 9.384L223.856 9.384Q223.278 9.384 222.845 9.639Q222.411 9.894 222.173 10.361Q221.935 10.829 221.935 11.458L221.935 11.458L221.935 11.951Q221.935 12.631 222.216 13.124Q222.496 13.617 223.023 13.880Q223.550 14.144 224.281 14.144L224.281 14.144Q224.961 14.144 225.446 13.948Q225.930 13.753 226.406 13.345L226.406 13.345L228.106 15.113Q227.443 15.844 226.474 16.226Q225.505 16.609 224.179 16.609ZM235.093 16.609L235.093 16.609Q233.461 16.609 232.246 15.989Q231.030 15.368 230.359 14.288Q229.687 13.209 229.687 11.832L229.687 11.832Q229.687 10.455 230.341 9.375Q230.996 8.296 232.152 7.692Q233.308 7.089 234.753 7.089L234.753 7.089Q236.113 7.089 237.235 7.641Q238.357 8.194 239.020 9.265Q239.683 10.336 239.683 11.866L239.683 11.866Q239.683 12.036 239.666 12.257Q239.649 12.478 239.632 12.665L239.632 12.665L232.339 12.665L232.339 10.965L237.915 10.965L236.691 11.441Q236.708 10.812 236.462 10.353Q236.215 9.894 235.782 9.639Q235.348 9.384 234.770 9.384L234.770 9.384Q234.192 9.384 233.758 9.639Q233.325 9.894 233.087 10.361Q232.849 10.829 232.849 11.458L232.849 11.458L232.849 11.951Q232.849 12.631 233.130 13.124Q233.410 13.617 233.937 13.880Q234.464 14.144 235.195 14.144L235.195 14.144Q235.875 14.144 236.359 13.948Q236.844 13.753 237.320 13.345L237.320 13.345L239.020 15.113Q238.357 15.844 237.388 16.226Q236.419 16.609 235.093 16.609ZM244.409 16.456L241.179 16.456L241.179 7.242L244.256 7.242L244.256 9.928L243.797 9.163Q244.205 8.126 245.123 7.607Q246.041 7.089 247.350 7.089L247.350 7.089L247.350 9.996Q247.129 9.962 246.968 9.953Q246.806 9.945 246.619 9.945L246.619 9.945Q245.633 9.945 245.021 10.480Q244.409 11.016 244.409 12.223L244.409 12.223L244.409 16.456ZM250.070 16.609L250.070 16.609Q249.254 16.609 248.693 16.065Q248.132 15.521 248.132 14.688L248.132 14.688Q248.132 13.821 248.693 13.302Q249.254 12.784 250.070 12.784L250.070 12.784Q250.886 12.784 251.447 13.302Q252.008 13.821 252.008 14.688L252.008 14.688Q252.008 15.521 251.447 16.065Q250.886 16.609 250.070 16.609Z" />
      <path d="M10.234 36.856L1.190 36.856L1.190 24.956L4.556 24.956L4.556 34.187L10.234 34.187L10.234 36.856ZM16.235 37.009L16.235 37.009Q14.603 37.009 13.388 36.388Q12.172 35.768 11.501 34.688Q10.829 33.609 10.829 32.232L10.829 32.232Q10.829 30.855 11.484 29.775Q12.138 28.696 13.294 28.092Q14.450 27.489 15.895 27.489L15.895 27.489Q17.255 27.489 18.377 28.041Q19.499 28.594 20.162 29.665Q20.825 30.736 20.825 32.266L20.825 32.266Q20.825 32.436 20.808 32.657Q20.791 32.878 20.774 33.065L20.774 33.065L13.481 33.065L13.481 31.365L19.057 31.365L17.833 31.841Q17.850 31.212 17.604 30.753Q17.357 30.294 16.924 30.039Q16.490 29.784 15.912 29.784L15.912 29.784Q15.334 29.784 14.901 30.039Q14.467 30.294 14.229 30.761Q13.991 31.229 13.991 31.858L13.991 31.858L13.991 32.351Q13.991 33.031 14.272 33.524Q14.552 34.017 15.079 34.280Q15.606 34.544 16.337 34.544L16.337 34.544Q17.017 34.544 17.502 34.348Q17.986 34.153 18.462 33.745L18.462 33.745L20.162 35.513Q19.499 36.244 18.530 36.626Q17.561 37.009 16.235 37.009ZM26.435 37.009L26.435 37.009Q24.667 37.009 23.681 36.133Q22.695 35.258 22.695 33.490L22.695 33.490L22.695 25.585L25.925 25.585L25.925 33.456Q25.925 33.949 26.197 34.229Q26.469 34.510 26.894 34.510L26.894 34.510Q27.472 34.510 27.880 34.221L27.880 34.221L28.679 36.482Q28.271 36.754 27.676 36.881Q27.081 37.009 26.435 37.009ZM28.033 30.039L21.352 30.039L21.352 27.642L28.033 27.642L28.033 30.039ZM32.079 29.920L29.784 29.920L29.580 24.956L32.300 24.956L32.079 29.920ZM37.383 37.009L37.383 37.009Q36.210 37.009 35.096 36.737Q33.983 36.465 33.303 36.057L33.303 36.057L34.272 33.847Q34.918 34.238 35.785 34.467Q36.652 34.697 37.485 34.697L37.485 34.697Q38.301 34.697 38.615 34.527Q38.930 34.357 38.930 34.068L38.930 34.068Q38.930 33.796 38.633 33.668Q38.335 33.541 37.850 33.473Q37.366 33.405 36.788 33.320Q36.210 33.235 35.623 33.090Q35.037 32.946 34.553 32.648Q34.068 32.351 33.779 31.841Q33.490 31.331 33.490 30.549L33.490 30.549Q33.490 29.665 34.008 28.976Q34.527 28.288 35.530 27.888Q36.533 27.489 37.978 27.489L37.978 27.489Q38.947 27.489 39.941 27.684Q40.936 27.880 41.616 28.271L41.616 28.271L40.647 30.464Q39.967 30.073 39.287 29.928Q38.607 29.784 37.995 29.784L37.995 29.784Q37.179 29.784 36.847 29.971Q36.516 30.158 36.516 30.430L36.516 30.430Q36.516 30.702 36.805 30.846Q37.094 30.991 37.578 31.067Q38.063 31.144 38.641 31.220Q39.219 31.297 39.806 31.450Q40.392 31.603 40.877 31.900Q41.361 32.198 41.650 32.699Q41.939 33.201 41.939 33.983L41.939 33.983Q41.939 34.833 41.421 35.513Q40.902 36.193 39.891 36.601Q38.879 37.009 37.383 37.009ZM54.077 37.009L54.077 37.009Q52.836 37.009 52.012 36.499Q51.187 35.989 50.779 34.935Q50.371 33.881 50.371 32.232L50.371 32.232Q50.371 30.617 50.805 29.563Q51.238 28.509 52.071 27.999Q52.904 27.489 54.077 27.489L54.077 27.489Q55.335 27.489 56.364 28.067Q57.392 28.645 57.996 29.707Q58.599 30.770 58.599 32.232L58.599 32.232Q58.599 33.711 57.996 34.773Q57.392 35.836 56.364 36.422Q55.335 37.009 54.077 37.009ZM51.357 36.856L48.280 36.856L48.280 24.242L51.510 24.242L51.510 29.189L51.340 32.232L51.357 35.275L51.357 36.856ZM53.397 34.442L53.397 34.442Q53.941 34.442 54.375 34.187Q54.808 33.932 55.072 33.430Q55.335 32.929 55.335 32.232L55.335 32.232Q55.335 31.535 55.072 31.050Q54.808 30.566 54.375 30.311Q53.941 30.056 53.397 30.056L53.397 30.056Q52.853 30.056 52.419 30.311Q51.986 30.566 51.723 31.050Q51.459 31.535 51.459 32.232L51.459 32.232Q51.459 32.929 51.723 33.430Q51.986 33.932 52.419 34.187Q52.853 34.442 53.397 34.442ZM63.971 37.009L63.971 37.009Q62.849 37.009 61.957 36.567Q61.064 36.125 60.563 35.181Q60.061 34.238 60.061 32.793L60.061 32.793L60.061 27.642L63.291 27.642L63.291 32.266Q63.291 33.337 63.691 33.796Q64.090 34.255 64.821 34.255L64.821 34.255Q65.297 34.255 65.688 34.034Q66.079 33.813 66.317 33.328Q66.555 32.844 66.555 32.079L66.555 32.079L66.555 27.642L69.785 27.642L69.785 36.856L66.708 36.856L66.708 34.255L67.303 34.986Q66.827 36.006 65.926 36.507Q65.025 37.009 63.971 37.009ZM75.089 36.856L71.859 36.856L71.859 27.642L75.089 27.642L75.089 36.856ZM73.474 26.622L73.474 26.622Q72.590 26.622 72.046 26.129Q71.502 25.636 71.502 24.905L71.502 24.905Q71.502 24.174 72.046 23.681Q72.590 23.188 73.474 23.188L73.474 23.188Q74.358 23.188 74.902 23.655Q75.446 24.123 75.446 24.854L75.446 24.854Q75.446 25.619 74.910 26.120Q74.375 26.622 73.474 26.622ZM80.410 36.856L77.180 36.856L77.180 24.242L80.410 24.242L80.410 36.856ZM86.513 37.009L86.513 37.009Q85.255 37.009 84.227 36.422Q83.198 35.836 82.586 34.773Q81.974 33.711 81.974 32.232L81.974 32.232Q81.974 30.770 82.586 29.707Q83.198 28.645 84.227 28.067Q85.255 27.489 86.513 27.489L86.513 27.489Q87.703 27.489 88.528 27.999Q89.352 28.509 89.777 29.563Q90.202 30.617 90.202 32.232L90.202 32.232Q90.202 33.881 89.794 34.935Q89.386 35.989 88.570 36.499Q87.754 37.009 86.513 37.009ZM87.193 34.442L87.193 34.442Q87.737 34.442 88.171 34.187Q88.604 33.932 88.859 33.430Q89.114 32.929 89.114 32.232L89.114 32.232Q89.114 31.535 88.859 31.050Q88.604 30.566 88.171 30.311Q87.737 30.056 87.193 30.056L87.193 30.056Q86.632 30.056 86.198 30.311Q85.765 30.566 85.510 31.050Q85.255 31.535 85.255 32.232L85.255 32.232Q85.255 32.929 85.510 33.430Q85.765 33.932 86.198 34.187Q86.632 34.442 87.193 34.442ZM92.293 36.856L89.216 36.856L89.216 35.275L89.233 32.232L89.063 29.189L89.063 24.242L92.293 24.242L92.293 36.856ZM104.635 36.856L101.507 36.856L98.226 27.642L101.286 27.642L103.887 35.343L102.425 35.343L105.128 27.642L107.882 27.642L110.483 35.343L109.055 35.343L111.741 27.642L114.580 27.642L111.299 36.856L108.171 36.856L105.961 30.481L106.913 30.481L104.635 36.856ZM118.796 36.856L115.566 36.856L115.566 24.242L118.796 24.242L118.796 30.260L118.048 29.495Q118.575 28.492 119.493 27.990Q120.411 27.489 121.567 27.489L121.567 27.489Q122.638 27.489 123.505 27.922Q124.372 28.356 124.873 29.257Q125.375 30.158 125.375 31.586L125.375 31.586L125.375 36.856L122.145 36.856L122.145 32.113Q122.145 31.127 121.745 30.676Q121.346 30.226 120.632 30.226L120.632 30.226Q120.122 30.226 119.697 30.455Q119.272 30.685 119.034 31.161Q118.796 31.637 118.796 32.402L118.796 32.402L118.796 36.856ZM136.034 36.856L133.025 36.856L133.025 35.139L132.804 34.714L132.804 31.552Q132.804 30.787 132.337 30.370Q131.869 29.954 130.849 29.954L130.849 29.954Q130.186 29.954 129.506 30.166Q128.826 30.379 128.350 30.753L128.350 30.753L127.262 28.560Q128.044 28.050 129.141 27.769Q130.237 27.489 131.325 27.489L131.325 27.489Q133.569 27.489 134.801 28.517Q136.034 29.546 136.034 31.739L136.034 31.739L136.034 36.856ZM130.305 37.009L130.305 37.009Q129.200 37.009 128.435 36.635Q127.670 36.261 127.270 35.615Q126.871 34.969 126.871 34.170L126.871 34.170Q126.871 33.320 127.304 32.699Q127.738 32.079 128.639 31.747Q129.540 31.416 130.968 31.416L130.968 31.416L133.144 31.416L133.144 33.099L131.410 33.099Q130.628 33.099 130.313 33.354Q129.999 33.609 129.999 34.034L129.999 34.034Q129.999 34.459 130.322 34.714Q130.645 34.969 131.206 34.969L131.206 34.969Q131.733 34.969 132.166 34.705Q132.600 34.442 132.804 33.898L132.804 33.898L133.246 35.088Q132.991 36.040 132.251 36.524Q131.512 37.009 130.305 37.009ZM142.188 37.009L142.188 37.009Q140.420 37.009 139.434 36.133Q138.448 35.258 138.448 33.490L138.448 33.490L138.448 25.585L141.678 25.585L141.678 33.456Q141.678 33.949 141.950 34.229Q142.222 34.510 142.647 34.510L142.647 34.510Q143.225 34.510 143.633 34.221L143.633 34.221L144.432 36.482Q144.024 36.754 143.429 36.881Q142.834 37.009 142.188 37.009ZM143.786 30.039L137.105 30.039L137.105 27.642L143.786 27.642L143.786 30.039ZM155.244 37.009L155.244 37.009Q153.731 37.009 152.558 36.397Q151.385 35.785 150.713 34.705Q150.042 33.626 150.042 32.232L150.042 32.232Q150.042 30.838 150.713 29.767Q151.385 28.696 152.558 28.092Q153.731 27.489 155.244 27.489L155.244 27.489Q156.757 27.489 157.938 28.092Q159.120 28.696 159.783 29.767Q160.446 30.838 160.446 32.232L160.446 32.232Q160.446 33.626 159.783 34.705Q159.120 35.785 157.938 36.397Q156.757 37.009 155.244 37.009ZM155.244 34.442L155.244 34.442Q155.805 34.442 156.238 34.187Q156.672 33.932 156.927 33.430Q157.182 32.929 157.182 32.232L157.182 32.232Q157.182 31.535 156.927 31.050Q156.672 30.566 156.238 30.311Q155.805 30.056 155.244 30.056L155.244 30.056Q154.700 30.056 154.266 30.311Q153.833 30.566 153.569 31.050Q153.306 31.535 153.306 32.232L153.306 32.232Q153.306 32.929 153.569 33.430Q153.833 33.932 154.266 34.187Q154.700 34.442 155.244 34.442ZM166.056 37.009L166.056 37.009Q164.288 37.009 163.302 36.133Q162.316 35.258 162.316 33.490L162.316 33.490L162.316 25.585L165.546 25.585L165.546 33.456Q165.546 33.949 165.818 34.229Q166.090 34.510 166.515 34.510L166.515 34.510Q167.093 34.510 167.501 34.221L167.501 34.221L168.300 36.482Q167.892 36.754 167.297 36.881Q166.702 37.009 166.056 37.009ZM167.654 30.039L160.973 30.039L160.973 27.642L167.654 27.642L167.654 30.039ZM172.771 36.856L169.541 36.856L169.541 24.242L172.771 24.242L172.771 30.260L172.023 29.495Q172.550 28.492 173.468 27.990Q174.386 27.489 175.542 27.489L175.542 27.489Q176.613 27.489 177.480 27.922Q178.347 28.356 178.848 29.257Q179.350 30.158 179.350 31.586L179.350 31.586L179.350 36.856L176.120 36.856L176.120 32.113Q176.120 31.127 175.720 30.676Q175.321 30.226 174.607 30.226L174.607 30.226Q174.097 30.226 173.672 30.455Q173.247 30.685 173.009 31.161Q172.771 31.637 172.771 32.402L172.771 32.402L172.771 36.856ZM186.201 37.009L186.201 37.009Q184.569 37.009 183.353 36.388Q182.138 35.768 181.466 34.688Q180.795 33.609 180.795 32.232L180.795 32.232Q180.795 30.855 181.449 29.775Q182.104 28.696 183.260 28.092Q184.416 27.489 185.861 27.489L185.861 27.489Q187.221 27.489 188.343 28.041Q189.465 28.594 190.128 29.665Q190.791 30.736 190.791 32.266L190.791 32.266Q190.791 32.436 190.774 32.657Q190.757 32.878 190.740 33.065L190.740 33.065L183.447 33.065L183.447 31.365L189.023 31.365L187.799 31.841Q187.816 31.212 187.569 30.753Q187.323 30.294 186.889 30.039Q186.456 29.784 185.878 29.784L185.878 29.784Q185.300 29.784 184.866 30.039Q184.433 30.294 184.195 30.761Q183.957 31.229 183.957 31.858L183.957 31.858L183.957 32.351Q183.957 33.031 184.237 33.524Q184.518 34.017 185.045 34.280Q185.572 34.544 186.303 34.544L186.303 34.544Q186.983 34.544 187.467 34.348Q187.952 34.153 188.428 33.745L188.428 33.745L190.128 35.513Q189.465 36.244 188.496 36.626Q187.527 37.009 186.201 37.009ZM195.517 36.856L192.287 36.856L192.287 27.642L195.364 27.642L195.364 30.328L194.905 29.563Q195.313 28.526 196.231 28.007Q197.149 27.489 198.458 27.489L198.458 27.489L198.458 30.396Q198.237 30.362 198.075 30.353Q197.914 30.345 197.727 30.345L197.727 30.345Q196.741 30.345 196.129 30.880Q195.517 31.416 195.517 32.623L195.517 32.623L195.517 36.856ZM203.167 37.009L203.167 37.009Q201.994 37.009 200.880 36.737Q199.767 36.465 199.087 36.057L199.087 36.057L200.056 33.847Q200.702 34.238 201.569 34.467Q202.436 34.697 203.269 34.697L203.269 34.697Q204.085 34.697 204.399 34.527Q204.714 34.357 204.714 34.068L204.714 34.068Q204.714 33.796 204.416 33.668Q204.119 33.541 203.634 33.473Q203.150 33.405 202.572 33.320Q201.994 33.235 201.407 33.090Q200.821 32.946 200.336 32.648Q199.852 32.351 199.563 31.841Q199.274 31.331 199.274 30.549L199.274 30.549Q199.274 29.665 199.792 28.976Q200.311 28.288 201.314 27.888Q202.317 27.489 203.762 27.489L203.762 27.489Q204.731 27.489 205.725 27.684Q206.720 27.880 207.400 28.271L207.400 28.271L206.431 30.464Q205.751 30.073 205.071 29.928Q204.391 29.784 203.779 29.784L203.779 29.784Q202.963 29.784 202.631 29.971Q202.300 30.158 202.300 30.430L202.300 30.430Q202.300 30.702 202.589 30.846Q202.878 30.991 203.362 31.067Q203.847 31.144 204.425 31.220Q205.003 31.297 205.589 31.450Q206.176 31.603 206.660 31.900Q207.145 32.198 207.434 32.699Q207.723 33.201 207.723 33.983L207.723 33.983Q207.723 34.833 207.204 35.513Q206.686 36.193 205.674 36.601Q204.663 37.009 203.167 37.009ZM218.773 37.009L218.773 37.009Q217.243 37.009 216.044 36.397Q214.846 35.785 214.166 34.705Q213.486 33.626 213.486 32.232L213.486 32.232Q213.486 30.838 214.166 29.767Q214.846 28.696 216.044 28.092Q217.243 27.489 218.773 27.489L218.773 27.489Q220.337 27.489 221.476 28.152Q222.615 28.815 223.091 30.022L223.091 30.022L220.592 31.297Q220.269 30.651 219.793 30.353Q219.317 30.056 218.756 30.056L218.756 30.056Q218.195 30.056 217.736 30.311Q217.277 30.566 217.013 31.050Q216.750 31.535 216.750 32.232L216.750 32.232Q216.750 32.946 217.013 33.439Q217.277 33.932 217.736 34.187Q218.195 34.442 218.756 34.442L218.756 34.442Q219.317 34.442 219.793 34.144Q220.269 33.847 220.592 33.201L220.592 33.201L223.091 34.476Q222.615 35.683 221.476 36.346Q220.337 37.009 218.773 37.009ZM232.951 36.856L229.942 36.856L229.942 35.139L229.721 34.714L229.721 31.552Q229.721 30.787 229.253 30.370Q228.786 29.954 227.766 29.954L227.766 29.954Q227.103 29.954 226.423 30.166Q225.743 30.379 225.267 30.753L225.267 30.753L224.179 28.560Q224.961 28.050 226.057 27.769Q227.154 27.489 228.242 27.489L228.242 27.489Q230.486 27.489 231.718 28.517Q232.951 29.546 232.951 31.739L232.951 31.739L232.951 36.856ZM227.222 37.009L227.222 37.009Q226.117 37.009 225.352 36.635Q224.587 36.261 224.187 35.615Q223.788 34.969 223.788 34.170L223.788 34.170Q223.788 33.320 224.221 32.699Q224.655 32.079 225.556 31.747Q226.457 31.416 227.885 31.416L227.885 31.416L230.061 31.416L230.061 33.099L228.327 33.099Q227.545 33.099 227.230 33.354Q226.916 33.609 226.916 34.034L226.916 34.034Q226.916 34.459 227.239 34.714Q227.562 34.969 228.123 34.969L228.123 34.969Q228.650 34.969 229.083 34.705Q229.517 34.442 229.721 33.898L229.721 33.898L230.163 35.088Q229.908 36.040 229.168 36.524Q228.429 37.009 227.222 37.009ZM238.221 36.856L234.991 36.856L234.991 27.642L238.068 27.642L238.068 30.260L237.473 29.495Q238.000 28.492 238.918 27.990Q239.836 27.489 240.992 27.489L240.992 27.489Q242.063 27.489 242.930 27.922Q243.797 28.356 244.298 29.257Q244.800 30.158 244.800 31.586L244.800 31.586L244.800 36.856L241.570 36.856L241.570 32.113Q241.570 31.127 241.170 30.676Q240.771 30.226 240.057 30.226L240.057 30.226Q239.547 30.226 239.122 30.455Q238.697 30.685 238.459 31.161Q238.221 31.637 238.221 32.402L238.221 32.402L238.221 36.856ZM248.982 29.920L246.687 29.920L246.483 24.956L249.203 24.956L248.982 29.920ZM255.051 37.009L255.051 37.009Q253.283 37.009 252.297 36.133Q251.311 35.258 251.311 33.490L251.311 33.490L251.311 25.585L254.541 25.585L254.541 33.456Q254.541 33.949 254.813 34.229Q255.085 34.510 255.510 34.510L255.510 34.510Q256.088 34.510 256.496 34.221L256.496 34.221L257.295 36.482Q256.887 36.754 256.292 36.881Q255.697 37.009 255.051 37.009ZM256.649 30.039L249.968 30.039L249.968 27.642L256.649 27.642L256.649 30.039ZM259.896 37.009L259.896 37.009Q259.080 37.009 258.519 36.465Q257.958 35.921 257.958 35.088L257.958 35.088Q257.958 34.221 258.519 33.702Q259.080 33.184 259.896 33.184L259.896 33.184Q260.712 33.184 261.273 33.702Q261.834 34.221 261.834 35.088L261.834 35.088Q261.834 35.921 261.273 36.465Q260.712 37.009 259.896 37.009Z" />
  </g>
</svg>
